<svg aria-hidden="true" style="position: absolute; width: 0; height: 0; overflow: hidden;" version="1.1" xmlns="http://www.w3.org/2000/svg" xmlns:xlink="http://www.w3.org/1999/xlink">
<defs>
<symbol id="icon-Dribbble" viewBox="0 0 32 32">
<path fill="#e94b88" style="fill: var(--color1, #e94b88)" d="M16 29.333c-7.352 0-13.333-5.981-13.333-13.333s5.981-13.333 13.333-13.333c7.352 0 13.333 5.981 13.333 13.333s-5.981 13.333-13.333 13.333zM27.245 17.825c-0.39-0.123-3.525-1.058-7.094-0.487 1.49 4.093 2.096 7.427 2.212 8.12 2.555-1.728 4.374-4.464 4.882-7.633zM20.449 26.501c-0.169-0.999-0.831-4.481-2.43-8.636-0.025 0.009-0.050 0.017-0.075 0.025-6.424 2.238-8.73 6.693-8.934 7.112 1.6 1.247 3.504 2.044 5.515 2.308s4.057-0.016 5.924-0.809zM7.539 23.632c0.258-0.442 3.384-5.617 9.257-7.515 0.148-0.048 0.298-0.093 0.449-0.135-0.286-0.647-0.597-1.295-0.923-1.933-5.687 1.702-11.206 1.631-11.705 1.621-0.003 0.116-0.006 0.231-0.006 0.348-0.002 2.813 1.041 5.527 2.928 7.615zM4.852 13.685c0.509 0.007 5.202 0.027 10.529-1.388-1.887-3.354-3.922-6.175-4.222-6.587-3.186 1.503-5.568 4.44-6.306 7.974zM13.331 4.945c0.315 0.421 2.383 3.238 4.25 6.667 4.050-1.518 5.764-3.822 5.969-4.114-1.371-1.218-3.017-2.086-4.796-2.53s-3.64-0.452-5.423-0.023zM24.816 8.815c-0.24 0.325-2.148 2.771-6.359 4.49 0.265 0.543 0.519 1.094 0.756 1.65 0.084 0.197 0.166 0.393 0.245 0.588 3.789-0.477 7.555 0.287 7.93 0.367-0.022-2.589-0.929-5.093-2.572-7.094z"></path>
</symbol>
<symbol id="icon-Frame-16" viewBox="0 0 32 32">
<path fill="#5221e6" style="fill: var(--color2, #5221e6)" d="M29.828 8.236h-2.928l-0.673-3.034c-0.287-1.296-1.417-2.201-2.746-2.201h-10.164c-1.33 0-2.459 0.905-2.746 2.201l-0.673 3.034h-0.695v-1.295c0-0.73-0.595-1.323-1.325-1.323h-4.286c-0.731 0-1.325 0.594-1.325 1.323v1.295h-0.094c-1.198 0-2.172 0.973-2.172 2.169v14.688c0 1.196 0.975 2.169 2.172 2.169h10.075c1.773 1.147 3.886 1.814 6.152 1.814s4.378-0.667 6.151-1.814h5.278c1.198 0 2.172-0.973 2.172-2.169v-14.688c0-1.196-0.974-2.169-2.172-2.169zM11.79 5.471c0.16-0.72 0.787-1.223 1.526-1.223h10.164c0.739 0 1.366 0.503 1.526 1.223l0.613 2.765h-1.070c-1.773-1.147-3.886-1.814-6.151-1.814s-4.378 0.667-6.152 1.814h-1.070l0.613-2.765zM3.516 6.941c0-0.042 0.034-0.075 0.075-0.075h4.286c0.042 0 0.075 0.034 0.075 0.075v1.295h-4.437v-1.295zM5.019 26.013v-6.777c0-0.345-0.28-0.624-0.625-0.624s-0.625 0.279-0.625 0.624v6.777h-1.597c-0.509 0-0.922-0.413-0.922-0.921v-14.688c0-0.508 0.414-0.921 0.922-0.921h8.477c-2.212 2.068-3.597 5.008-3.597 8.265s1.385 6.197 3.597 8.265h-5.631zM24.169 26.013c-0.745 0.52-1.563 0.942-2.436 1.248-1.044 0.366-2.167 0.566-3.335 0.566s-2.29-0.2-3.335-0.566c-0.873-0.306-1.691-0.728-2.436-1.248-2.613-1.823-4.325-4.848-4.325-8.265s1.712-6.441 4.325-8.265c0.745-0.52 1.563-0.942 2.436-1.248 1.045-0.366 2.167-0.566 3.335-0.566s2.29 0.2 3.335 0.566c0.873 0.306 1.691 0.728 2.436 1.248 2.613 1.823 4.325 4.848 4.325 8.265s-1.712 6.441-4.325 8.265zM30.75 25.092c0 0.508-0.414 0.921-0.922 0.921h-3.68c2.212-2.068 3.597-5.008 3.597-8.265s-1.385-6.197-3.597-8.265h3.68c0.509 0 0.922 0.413 0.922 0.921v14.688z"></path>
<path fill="#5221e6" style="fill: var(--color2, #5221e6)" d="M18.37 10.111c-4.248 0-7.704 3.456-7.704 7.704s3.456 7.704 7.704 7.704c0.619 0 1.235-0.074 1.831-0.219 0.315-0.077 0.508-0.394 0.431-0.709s-0.394-0.508-0.709-0.431c-0.505 0.123-1.028 0.186-1.553 0.186-3.601 0-6.53-2.929-6.53-6.53s2.929-6.53 6.53-6.53c3.601 0 6.53 2.929 6.53 6.53 0 1.312-0.387 2.578-1.121 3.659-0.182 0.268-0.112 0.633 0.156 0.815s0.633 0.112 0.815-0.156c0.866-1.277 1.323-2.77 1.323-4.318 0-4.248-3.456-7.704-7.704-7.704z"></path>
<path fill="#5221e6" style="fill: var(--color2, #5221e6)" d="M4.741 11.296c-1.307 0-2.37 1.063-2.37 2.37s1.063 2.37 2.37 2.37c1.307 0 2.37-1.063 2.37-2.37s-1.063-2.37-2.37-2.37zM4.741 14.764c-0.605 0-1.097-0.492-1.097-1.097s0.492-1.097 1.097-1.097 1.097 0.492 1.097 1.097c0 0.605-0.492 1.097-1.097 1.097z"></path>
<path fill="#5221e6" style="fill: var(--color2, #5221e6)" d="M23.692 23.625c-0.008-0.037-0.019-0.075-0.034-0.111s-0.033-0.070-0.055-0.102c-0.021-0.033-0.046-0.063-0.073-0.090s-0.058-0.052-0.090-0.074c-0.033-0.021-0.067-0.040-0.103-0.055s-0.073-0.026-0.111-0.034c-0.076-0.015-0.155-0.015-0.232 0-0.038 0.008-0.075 0.019-0.111 0.034s-0.070 0.033-0.102 0.055c-0.032 0.022-0.062 0.047-0.090 0.074s-0.052 0.057-0.073 0.090c-0.021 0.032-0.040 0.066-0.055 0.102s-0.026 0.073-0.034 0.111c-0.008 0.038-0.012 0.078-0.012 0.116s0.004 0.078 0.012 0.116c0.008 0.038 0.019 0.075 0.034 0.111s0.033 0.070 0.055 0.102c0.021 0.033 0.046 0.063 0.073 0.090s0.058 0.052 0.090 0.073c0.033 0.021 0.067 0.040 0.102 0.055s0.073 0.026 0.111 0.034c0.038 0.008 0.077 0.012 0.116 0.012s0.078-0.004 0.116-0.012c0.038-0.008 0.075-0.019 0.111-0.034s0.070-0.033 0.103-0.055c0.032-0.021 0.063-0.046 0.090-0.073 0.11-0.11 0.173-0.263 0.173-0.419 0-0.038-0.004-0.078-0.011-0.116z"></path>
</symbol>
<symbol id="icon-Group-20" viewBox="0 0 32 32">
<path fill="#5221e6" style="fill: var(--color2, #5221e6)" d="M17.221 1.2l13.578 13.578 1.2-1.2-13.578-13.578-1.2 1.2z"></path>
<path fill="#5221e6" style="fill: var(--color2, #5221e6)" d="M19.234 7.601c-0.736-0.736-1.846-0.95-2.803-0.54l-9.423 4.039c-1.113 0.477-1.971 1.406-2.352 2.56-0.893 2.708-2.048 6.287-2.981 9.346-0.466 1.529-0.879 2.934-1.175 4.039-0.148 0.552-0.27 1.036-0.355 1.427-0.079 0.364-0.144 0.723-0.144 0.981v0.352l2.194 2.194h0.352c0.259 0 0.617-0.065 0.981-0.144 0.391-0.085 0.875-0.206 1.427-0.355 1.105-0.297 2.51-0.709 4.039-1.175 3.059-0.933 6.638-2.088 9.346-2.981 1.154-0.381 2.082-1.239 2.56-2.352l4.039-9.423c0.41-0.957 0.196-2.067-0.54-2.803l-5.164-5.164zM17.099 8.622c0.319-0.137 0.689-0.065 0.934 0.18l5.164 5.164c0.245 0.245 0.317 0.615 0.18 0.934l-4.039 9.424c-0.287 0.669-0.843 1.181-1.531 1.408-2.702 0.891-6.268 2.042-9.31 2.97-1.522 0.464-2.906 0.87-3.984 1.16-0.539 0.145-0.994 0.259-1.347 0.335-0.075 0.016-0.143 0.030-0.207 0.043l8.671-8.671c0.946 0.452 2.114 0.286 2.898-0.498 0.994-0.994 0.994-2.606 0-3.6s-2.606-0.994-3.6 0c-0.784 0.784-0.95 1.952-0.498 2.898l-8.672 8.672c0.012-0.063 0.027-0.132 0.043-0.207 0.077-0.353 0.19-0.808 0.335-1.347 0.289-1.078 0.696-2.462 1.16-3.984 0.928-3.042 2.079-6.608 2.97-9.31 0.227-0.688 0.739-1.244 1.408-1.531l9.424-4.039z"></path>
</symbol>
<symbol id="icon-Group-62" viewBox="0 0 32 32">

<circle cx="16" cy="16" r="15" stroke="#5221E6" stroke-width="2" stroke-dasharray="10 10"/>
<path d="M21 16L13.5 20.3301L13.5 11.6699L21 16Z" fill="#5221E6"/>
</symbol>

<symbol id="icon-Group-65" viewBox="0 0 32 32">
<path fill="#000" style="fill: var(--color3, #000)" d="M0 0h32v32h-32v-32z"></path>
<path fill="#c4c4c4" style="fill: var(--color4, #c4c4c4)" d="M4 8h24v4h-24v-4z"></path>
<path fill="#c4c4c4" style="fill: var(--color4, #c4c4c4)" d="M10.667 18.667h17.333v4h-17.333v-4z"></path>
</symbol>
<symbol id="icon-Group-74" viewBox="0 0 41 32">
<path fill="#000" style="fill: var(--color3, #000)" d="M0.114 0.114h40.914v31.771h-40.914v-31.771z"></path>
<path fill="#8491a0" style="fill: var(--color5, #8491a0)" d="M19.804 15.807c0.614-0.203 0.725-0.715 0.724-1.132-0.001-0.637-0.454-1.189-1.794-1.189l-2.501-0v4.79h2.495c1.348 0 1.844-0.688 1.844-1.377 0-0.834-0.768-1.091-0.768-1.091zM17.42 14.528l1.69 0.001c0.19 0.033 0.328 0.194 0.328 0.383 0 0.193-0.148 0.374-0.344 0.401l-1.673 0.002-0.001-0.787zM19.023 17.16h-1.603v-0.802l1.646 0c0.204 0.023 0.359 0.192 0.359 0.393 0 0.219-0.183 0.405-0.402 0.409z"></path>
<path fill="#8491a0" style="fill: var(--color5, #8491a0)" d="M26.172 13.486h4.226l-0.002 1.046h-3.050l0.003 0.772h2.75v1.051h-2.75v0.835h3.050l-0 1.095h-4.227v-4.799z"></path>
<path fill="#8491a0" style="fill: var(--color5, #8491a0)" d="M23.714 13.493h-2.556v4.792h1.174v-1.939c0 0 1.292-0.001 1.293-0.001 0.37 0.006 0.658 0.307 0.658 0.679v1.257l1.149-0-0.002-1.546c0-0.716-0.696-0.928-0.696-0.928s0.712-0.212 0.712-1.059c0-1.036-0.896-1.254-1.73-1.254zM24.355 14.979c-0.021 0.158-0.179 0.328-0.377 0.328l-1.649 0.001v-0.767h1.65c0.197 0 0.352 0.144 0.376 0.334v0.105z"></path>
<path fill="#8491a0" style="fill: var(--color5, #8491a0)" d="M15.472 17.126c-0.017 0-1.604 0.031-2.152-0.022-0.883-0.086-1.195-0.736-1.195-1.266 0-0.661 0.454-1.148 1.156-1.24 0.334-0.044 2.162-0.023 2.182-0.023l0.038 0 0.004-1.090-0.039 0-2.069 0.004c-0.23 0.014-0.612 0.037-1.003 0.196-0.376 0.171-0.703 0.434-0.947 0.761-0.311 0.416-0.475 0.91-0.475 1.428 0 0.163 0.013 0.325 0.039 0.48 0.149 0.727 0.628 1.328 1.315 1.651 0.232 0.101 0.59 0.223 1.311 0.263 0.002 0 0.389 0.008 0.389 0.008l1.481 0.001 0.004-1.153-0.039 0z"></path>
</symbol>
<symbol id="icon-Group-75" viewBox="0 0 41 32">
<path fill="#000" style="fill: var(--color3, #000)" d="M0.114 0.114h40.914v31.771h-40.914v-31.771z"></path>
<path fill="#8491a0" style="fill: var(--color5, #8491a0)" d="M17.031 15.794c-0.317 0.963-1.091 1.506-2.138 1.506-1.302 0-2.322-1.033-2.322-2.355 0-1.305 1.020-2.373 2.278-2.373 1.17 0 2.296 0.963 2.287 2.566h-3.809c0.097 0.937 0.818 1.489 1.566 1.489 0.642 0 1.1-0.306 1.346-0.832h0.792zM16.31 14.472c-0.185-0.736-0.801-1.226-1.46-1.226-0.624 0-1.284 0.455-1.478 1.226h2.938zM19.767 17.3c-0.651 0-1.214-0.35-1.539-0.788v2.688h-0.748v-6.515h0.721v0.718c0.317-0.455 0.897-0.832 1.566-0.832 1.302 0 2.261 1.060 2.261 2.356 0 1.314-0.959 2.373-2.261 2.373zM19.767 13.255c-0.836 0-1.539 0.753-1.539 1.672 0 0.928 0.704 1.69 1.539 1.69 0.844 0 1.513-0.762 1.513-1.69 0-0.919-0.669-1.672-1.513-1.672zM22.354 12.685h0.748v4.51h-0.748v-4.509zM23.435 14.947c0-1.316 1.073-2.374 2.432-2.374s2.432 1.058 2.432 2.374-1.083 2.355-2.432 2.355c-1.349 0-2.432-1.039-2.432-2.355zM26.072 13.291c-1.238-0.108-1.926 0.83-1.926 1.923s0.905 1.979 2.021 1.979c0.418 0.001 0.825-0.126 1.168-0.364l-0.28-0.71c0.289-0.3 0.457-0.715 0.457-1.173 0-0.906-0.635-1.58-1.439-1.655z"></path>
<path fill="#8491a0" style="fill: var(--color5, #8491a0)" d="M25.42 15.4l2.206 1.787h1.174l-2.149-1.787z"></path>
</symbol>
<symbol id="icon-Group-76" viewBox="0 0 41 32">
<path fill="#000" style="fill: var(--color3, #000)" d="M0.114 0.114h40.914v31.771h-40.914v-31.771z"></path>
<path fill="#8491a0" style="fill: var(--color5, #8491a0)" d="M23.491 12.8h-6.044c-0.018 0-0.035 0.006-0.049 0.018s-0.023 0.027-0.026 0.045c-0.003 0.018 0 0.036 0.009 0.051s0.023 0.027 0.040 0.034l5.466 1.79c0.006 0.002 0.013 0.002 0.019-0.001s0.011-0.007 0.014-0.013l0.816-1.513c0.023-0.042 0.035-0.090 0.033-0.138s-0.015-0.095-0.039-0.137c-0.025-0.041-0.060-0.076-0.102-0.1s-0.089-0.036-0.138-0.036z"></path>
<path fill="#8491a0" style="fill: var(--color5, #8491a0)" d="M17.373 19.127c0 0.016 0.006 0.032 0.016 0.045s0.024 0.022 0.040 0.026c0.016 0.004 0.033 0.003 0.048-0.004s0.027-0.018 0.035-0.033l1.052-1.948c0.024-0.044 0.059-0.081 0.102-0.107s0.093-0.039 0.143-0.039h2.683c0.050 0 0.1-0.014 0.143-0.039s0.079-0.063 0.102-0.107l0.802-1.486c0.002-0.003 0.003-0.007 0.003-0.011s-0.001-0.008-0.003-0.011c-0.002-0.003-0.005-0.006-0.008-0.008s-0.007-0.003-0.011-0.003h-4.867c-0.074 0-0.145 0.029-0.197 0.082s-0.082 0.123-0.082 0.197v3.446z"></path>
</symbol>
<symbol id="icon-Group-77" viewBox="0 0 41 32">
<path fill="#000" style="fill: var(--color3, #000)" d="M0.114 0.114h40.914v31.771h-40.914v-31.771z"></path>
<path fill="#8491a0" style="fill: var(--color5, #8491a0)" d="M22.74 13.486h-2.135c-1.281 0-2.32 0.892-2.32 2.173v1.506c0.935-1.912 3.208-3.255 4.454-3.679z"></path>
<path fill="#8491a0" style="fill: var(--color5, #8491a0)" d="M18.514 18.286h1.892c1.281 0 2.32-1.039 2.32-2.32v-2.369c-1.975 1.097-3.326 2.804-4.212 4.689z"></path>
</symbol>
<symbol id="icon-Group-78" viewBox="0 0 41 32">
<path fill="#000" style="fill: var(--color3, #000)" d="M0.114 0.114h40.914v31.771h-40.914v-31.771z"></path>
<path fill="#8491a0" style="fill: var(--color5, #8491a0)" d="M5.249 15.247c0-0.075-0.026-0.14-0.077-0.195s-0.115-0.082-0.191-0.082c-0.239 0-0.487 0.254-0.745 0.763-0.239 0.46-0.358 0.825-0.358 1.096 0 0.245 0.083 0.367 0.25 0.367 0.235 0 0.47-0.238 0.705-0.712 0.159-0.324 0.285-0.667 0.375-1.029 0.026-0.106 0.040-0.175 0.040-0.209zM5.937 16.671v0.011c-0.004 0.008-0.006 0.013-0.006 0.017-0.080 0.192-0.184 0.356-0.313 0.492-0.163 0.166-0.334 0.249-0.512 0.249-0.205 0-0.307-0.122-0.307-0.367 0-0.064 0.006-0.126 0.017-0.187-0.254 0.369-0.531 0.554-0.831 0.554-0.178 0-0.318-0.070-0.421-0.209-0.091-0.121-0.136-0.273-0.136-0.458 0-0.377 0.165-0.793 0.495-1.249 0.353-0.482 0.711-0.723 1.075-0.723 0.156 0 0.286 0.068 0.393 0.203 0.030-0.113 0.091-0.17 0.182-0.17 0.174 0 0.262 0.030 0.262 0.090 0 0.011-0.044 0.147-0.131 0.407-0.338 1.006-0.506 1.585-0.506 1.735 0 0.072 0.026 0.107 0.080 0.107 0.106 0 0.228-0.096 0.367-0.288s0.21-0.288 0.213-0.288c0.053 0 0.080 0.025 0.080 0.073z"></path>
<path fill="#8491a0" style="fill: var(--color5, #8491a0)" d="M8.827 14.41c0-0.316-0.077-0.543-0.23-0.681s-0.386-0.204-0.697-0.201c-0.243 0-0.364 0.053-0.364 0.158v1.611c0.14 0.023 0.243 0.034 0.307 0.034 0.66-0.004 0.988-0.311 0.984-0.921zM9.498 14.41c0 0.754-0.514 1.13-1.542 1.13-0.133 0-0.273-0.007-0.421-0.022v1.006c0 0.354 0.063 0.558 0.188 0.61 0.008 0.004 0.089 0.028 0.245 0.073 0.091 0.023 0.134 0.053 0.131 0.090-0.004 0.045-0.034 0.068-0.091 0.068h-1.547c-0.057 0-0.087-0.023-0.091-0.068-0.004-0.038 0.040-0.068 0.131-0.090 0.155-0.045 0.237-0.070 0.245-0.073 0.125-0.053 0.188-0.256 0.188-0.61v-2.317c0-0.354-0.063-0.558-0.188-0.61-0.008-0.004-0.089-0.028-0.245-0.073-0.091-0.023-0.135-0.053-0.131-0.090 0.004-0.045 0.034-0.068 0.091-0.068h1.667c0.394 0 0.713 0.081 0.956 0.243 0.277 0.181 0.415 0.448 0.415 0.803z"></path>
<path fill="#8491a0" style="fill: var(--color5, #8491a0)" d="M10.906 17.298c-0.004 0.045-0.034 0.068-0.091 0.068h-1.229c-0.057 0-0.087-0.023-0.091-0.068-0.004-0.030 0.040-0.057 0.131-0.079 0.117-0.026 0.199-0.055 0.245-0.085s0.070-0.113 0.074-0.249v-2.967c0-0.102-0.009-0.169-0.029-0.201s-0.076-0.048-0.17-0.048c-0.144 0-0.216-0.023-0.216-0.068 0-0.049 0.045-0.083 0.136-0.102 0.22-0.045 0.436-0.107 0.649-0.186 0.026-0.008 0.047-0.011 0.063-0.011 0.038 0 0.061 0.022 0.068 0.065s0.011 0.135 0.011 0.274v2.883c0 0.381 0.025 0.584 0.074 0.61 0.027 0.015 0.108 0.040 0.245 0.074 0.091 0.026 0.134 0.056 0.131 0.090z"></path>
<path fill="#8491a0" style="fill: var(--color5, #8491a0)" d="M12.584 16.611v-0.63c-0.281 0.053-0.491 0.116-0.631 0.191-0.228 0.128-0.341 0.304-0.341 0.529 0 0.12 0.035 0.217 0.105 0.29s0.166 0.11 0.287 0.11c0.152 0 0.286-0.047 0.404-0.141s0.176-0.21 0.176-0.349zM13.625 16.976c-0.102 0.29-0.281 0.435-0.535 0.435-0.273 0-0.44-0.137-0.501-0.413-0.288 0.275-0.58 0.413-0.876 0.413-0.19 0-0.339-0.054-0.449-0.163s-0.165-0.258-0.165-0.445c0-0.342 0.186-0.598 0.558-0.767 0.212-0.094 0.521-0.167 0.927-0.22 0.011-0.357-0.017-0.588-0.085-0.694-0.057-0.094-0.186-0.139-0.387-0.135-0.167 0.004-0.277 0.057-0.33 0.158-0.026 0.094-0.053 0.188-0.080 0.283-0.038 0.102-0.119 0.153-0.245 0.153-0.167 0-0.25-0.072-0.25-0.215 0-0.184 0.116-0.328 0.347-0.429 0.178-0.075 0.379-0.113 0.603-0.113 0.614 0.004 0.922 0.214 0.922 0.632v1.393c0 0.203 0.057 0.303 0.171 0.299 0.076 0 0.139-0.040 0.191-0.122s0.088-0.122 0.111-0.122c0.023 0 0.043 0.008 0.060 0.025s0.022 0.033 0.014 0.048z"></path>
<path fill="#8491a0" style="fill: var(--color5, #8491a0)" d="M15.857 16.978c-0.247 0.319-0.55 0.478-0.91 0.478-0.376 0-0.675-0.119-0.899-0.357s-0.336-0.547-0.336-0.929c0-0.381 0.124-0.702 0.373-0.963s0.564-0.389 0.947-0.385c0.174 0 0.345 0.038 0.512 0.113 0.209 0.094 0.313 0.218 0.313 0.373 0 0.147-0.076 0.22-0.228 0.22-0.091 0-0.162-0.043-0.213-0.13s-0.099-0.173-0.145-0.26c-0.068-0.090-0.163-0.136-0.284-0.136-0.25 0-0.44 0.121-0.569 0.363-0.099 0.193-0.148 0.427-0.148 0.703 0 0.302 0.061 0.557 0.182 0.765 0.144 0.257 0.354 0.385 0.631 0.385 0.159 0 0.311-0.057 0.455-0.171 0.030-0.027 0.123-0.124 0.279-0.292 0.019-0.019 0.036-0.029 0.051-0.029 0.034 0 0.051 0.029 0.051 0.085s-0.021 0.112-0.063 0.165z"></path>
<path fill="#8491a0" style="fill: var(--color5, #8491a0)" d="M17.91 15.67c-0.023-0.448-0.203-0.67-0.54-0.666-0.364 0.004-0.582 0.264-0.654 0.78h0.711c0.326 0 0.487-0.038 0.484-0.114zM18.45 15.908c0 0.042-0.021 0.066-0.063 0.073h-1.695c-0.004 0.053-0.006 0.092-0.006 0.119 0 0.309 0.057 0.56 0.171 0.752 0.144 0.237 0.36 0.356 0.649 0.356 0.189 0 0.351-0.041 0.483-0.124 0.068-0.045 0.169-0.138 0.301-0.277 0.015-0.015 0.032-0.023 0.051-0.023 0.049 0 0.074 0.023 0.074 0.068 0 0.015-0.006 0.032-0.017 0.051-0.216 0.366-0.558 0.546-1.024 0.543-0.372-0.004-0.671-0.123-0.899-0.359s-0.341-0.536-0.341-0.902c0-0.377 0.112-0.695 0.335-0.955 0.239-0.275 0.544-0.411 0.916-0.407 0.284 0 0.521 0.085 0.711 0.254 0.231 0.203 0.349 0.48 0.353 0.831z"></path>
<path fill="#8491a0" style="fill: var(--color5, #8491a0)" d="M21.783 13.625c0 0.056-0.020 0.106-0.060 0.15s-0.088 0.065-0.145 0.065c-0.091 0-0.163-0.066-0.216-0.198s-0.123-0.198-0.21-0.198c-0.197 0-0.353 0.115-0.467 0.346-0.042 0.079-0.108 0.278-0.199 0.596l-0.153 0.533h0.563c0.049 0 0.074 0.023 0.074 0.070 0 0.078-0.042 0.117-0.125 0.117h-0.557l-0.569 2.13c-0.133 0.496-0.264 0.862-0.392 1.099-0.235 0.424-0.529 0.637-0.882 0.637-0.133 0-0.25-0.038-0.353-0.113s-0.154-0.175-0.154-0.3c0-0.169 0.077-0.254 0.23-0.254 0.105 0 0.17 0.041 0.197 0.124 0.007 0.030 0.011 0.111 0.011 0.243 0 0.087 0.040 0.13 0.12 0.13 0.16 0 0.301-0.143 0.423-0.429 0.053-0.124 0.12-0.337 0.2-0.638l0.697-2.63h-0.592c-0.034 0-0.051-0.021-0.051-0.064 0-0.082 0.036-0.122 0.108-0.122h0.569c0.151-0.486 0.299-0.842 0.443-1.068 0.247-0.396 0.552-0.594 0.916-0.594 0.133 0 0.256 0.028 0.37 0.085 0.137 0.068 0.205 0.162 0.205 0.283z"></path>
<path fill="#8491a0" style="fill: var(--color5, #8491a0)" d="M22.33 15.433c0-0.309-0.104-0.464-0.313-0.464-0.239 0-0.459 0.251-0.66 0.752-0.171 0.426-0.256 0.782-0.256 1.068 0 0.328 0.112 0.492 0.336 0.492 0.235 0 0.451-0.254 0.648-0.763 0.163-0.43 0.245-0.791 0.245-1.085zM22.745 15.733c0 0.392-0.117 0.763-0.353 1.113-0.265 0.396-0.586 0.593-0.961 0.593-0.246 0-0.436-0.098-0.569-0.294-0.121-0.169-0.182-0.38-0.182-0.633 0-0.388 0.12-0.761 0.358-1.119 0.269-0.399 0.59-0.599 0.961-0.599 0.247 0 0.436 0.098 0.569 0.294 0.118 0.174 0.176 0.388 0.176 0.644z"></path>
<path fill="#8491a0" style="fill: var(--color5, #8491a0)" d="M25.048 15.105c0 0.068-0.020 0.13-0.060 0.187s-0.092 0.085-0.157 0.085c-0.064 0-0.114-0.040-0.148-0.119s-0.080-0.119-0.136-0.119c-0.209 0-0.55 0.742-1.024 2.227h-0.444c0.114-0.381 0.227-0.763 0.341-1.147 0.178-0.607 0.267-0.948 0.267-1.023 0-0.064-0.028-0.096-0.085-0.096-0.102 0-0.199 0.062-0.29 0.187-0.030 0.038-0.091 0.141-0.182 0.311-0.023 0.045-0.055 0.068-0.097 0.068-0.057 0-0.085-0.023-0.085-0.068l0.006-0.023c0.049-0.188 0.146-0.36 0.29-0.514 0.163-0.17 0.336-0.254 0.517-0.254 0.201 0 0.302 0.115 0.302 0.345 0 0.072-0.013 0.16-0.040 0.266-0.027 0.090-0.051 0.179-0.074 0.266 0.288-0.584 0.559-0.876 0.813-0.876 0.084 0 0.152 0.029 0.205 0.088s0.080 0.129 0.080 0.212z"></path>
<path fill="#8491a0" style="fill: var(--color5, #8491a0)" d="M30.242 17.298c-0.004 0.045-0.034 0.068-0.091 0.068h-1.502c-0.057 0-0.087-0.023-0.091-0.068-0.004-0.038 0.040-0.068 0.131-0.090 0.155-0.045 0.237-0.070 0.245-0.073 0.125-0.053 0.188-0.256 0.188-0.61v-2.668l-1.468 3.436c-0.034 0.079-0.061 0.119-0.080 0.119s-0.051-0.051-0.097-0.153l-1.263-2.883c-0.068-0.154-0.136-0.284-0.205-0.39l0.034 2.538c0.004 0.181 0.011 0.303 0.023 0.367 0.026 0.124 0.082 0.205 0.165 0.243 0.008 0.004 0.089 0.028 0.245 0.073 0.091 0.023 0.135 0.053 0.131 0.090-0.004 0.045-0.034 0.068-0.091 0.068h-1.217c-0.057 0-0.087-0.023-0.091-0.068-0.004-0.038 0.040-0.068 0.131-0.090 0.155-0.045 0.237-0.070 0.245-0.073 0.083-0.038 0.139-0.122 0.165-0.254 0.015-0.064 0.023-0.183 0.023-0.356l0.029-2.781c-0.061-0.049-0.15-0.098-0.267-0.147-0.083-0.023-0.165-0.047-0.245-0.073-0.091-0.023-0.135-0.053-0.131-0.090 0.004-0.045 0.034-0.068 0.091-0.068h0.683c0.258 0.004 0.406 0.016 0.444 0.037s0.095 0.12 0.171 0.297l1.212 2.82 1.308-3.069c0.023-0.057 0.074-0.085 0.153-0.085h0.933c0.057 0 0.087 0.023 0.091 0.068 0.004 0.038-0.040 0.068-0.131 0.090-0.156 0.045-0.237 0.070-0.245 0.073-0.125 0.053-0.188 0.256-0.188 0.61v2.317c0 0.354 0.063 0.558 0.188 0.61 0.008 0.004 0.089 0.028 0.245 0.073 0.091 0.023 0.134 0.053 0.131 0.090z"></path>
<path fill="#8491a0" style="fill: var(--color5, #8491a0)" d="M32.415 16.142c0-0.313-0.051-0.57-0.154-0.771-0.133-0.261-0.339-0.391-0.62-0.391s-0.487 0.134-0.62 0.402c-0.102 0.2-0.154 0.455-0.154 0.765 0 0.302 0.051 0.553 0.154 0.753 0.136 0.257 0.343 0.385 0.62 0.385 0.28 0 0.487-0.128 0.62-0.385 0.102-0.2 0.154-0.453 0.154-0.759zM32.96 16.109c0 0.385-0.125 0.706-0.375 0.963s-0.569 0.385-0.956 0.385-0.7-0.121-0.938-0.363c-0.239-0.242-0.359-0.557-0.359-0.946 0-0.385 0.125-0.702 0.376-0.952s0.569-0.374 0.956-0.374c0.368 0 0.676 0.123 0.924 0.368s0.372 0.551 0.372 0.918z"></path>
<path fill="#8491a0" style="fill: var(--color5, #8491a0)" d="M37.87 17.299c-0.004 0.045-0.034 0.068-0.091 0.068h-1.229c-0.057 0-0.087-0.022-0.091-0.068-0.004-0.030 0.040-0.056 0.131-0.079 0.117-0.026 0.2-0.055 0.248-0.087s0.071-0.234 0.071-0.606v-0.733c0-0.229-0.028-0.397-0.085-0.502-0.076-0.143-0.222-0.214-0.438-0.214-0.182 0-0.338 0.055-0.466 0.166s-0.193 0.247-0.193 0.409v0.874c0.004 0.226 0.005 0.35 0.005 0.372 0.008 0.135 0.030 0.214 0.068 0.237s0.12 0.049 0.245 0.079c0.091 0.023 0.134 0.051 0.131 0.085-0.004 0.045-0.034 0.068-0.091 0.068h-1.229c-0.057 0-0.087-0.022-0.091-0.068-0.004-0.030 0.040-0.056 0.131-0.079 0.117-0.026 0.2-0.055 0.248-0.087s0.071-0.234 0.071-0.606v-0.733c0-0.229-0.028-0.397-0.086-0.502-0.076-0.143-0.222-0.214-0.438-0.214-0.182 0-0.337 0.055-0.466 0.166s-0.193 0.247-0.193 0.409v0.874c0 0.38 0.024 0.583 0.074 0.609 0.026 0.015 0.108 0.040 0.245 0.073 0.091 0.026 0.135 0.056 0.131 0.090-0.004 0.045-0.034 0.068-0.091 0.068h-1.229c-0.057 0-0.087-0.023-0.091-0.068-0.004-0.030 0.042-0.055 0.136-0.073 0.118-0.023 0.199-0.054 0.245-0.093s0.068-0.242 0.068-0.608v-1.080c0-0.102-0.009-0.169-0.029-0.201s-0.076-0.048-0.171-0.048c-0.144 0-0.216-0.023-0.216-0.068 0-0.049 0.045-0.083 0.136-0.102 0.22-0.045 0.436-0.107 0.648-0.187 0.034-0.008 0.057-0.011 0.068-0.011 0.034 0 0.055 0.025 0.063 0.074 0.003 0.034 0.007 0.13 0.011 0.288 0.083-0.107 0.205-0.195 0.366-0.261s0.327-0.1 0.497-0.1c0.394 0 0.64 0.145 0.739 0.435 0.227-0.29 0.545-0.435 0.954-0.435 0.311 0 0.525 0.085 0.642 0.254 0.129 0.184 0.193 0.474 0.193 0.868v0.575c0 0.214 0.002 0.338 0.006 0.372 0.008 0.136 0.030 0.214 0.068 0.237s0.12 0.049 0.245 0.079c0.091 0.023 0.134 0.051 0.131 0.085z"></path>
<path fill="#8491a0" style="fill: var(--color5, #8491a0)" d="M38.378 17.043c-0.011-0.004-0.026-0.006-0.046-0.006h-0.019v0.088h0.031c0.019 0 0.033-0.004 0.043-0.011s0.016-0.019 0.016-0.036c0-0.017-0.008-0.028-0.025-0.034zM38.233 17.287v-0.303c0.019 0 0.047 0 0.085 0s0.059 0 0.063 0.001c0.024 0.002 0.044 0.007 0.060 0.016 0.027 0.015 0.041 0.039 0.041 0.072 0 0.026-0.007 0.044-0.022 0.055s-0.032 0.018-0.053 0.020c0.019 0.004 0.034 0.010 0.043 0.017 0.018 0.014 0.027 0.037 0.027 0.068v0.027c0 0.003 0 0.006 0.001 0.009s0.001 0.006 0.002 0.009l0.003 0.009h-0.076c-0.002-0.010-0.004-0.024-0.005-0.042s-0.002-0.031-0.005-0.037c-0.004-0.011-0.011-0.018-0.022-0.022-0.006-0.003-0.015-0.004-0.027-0.005l-0.018-0.001h-0.017v0.107h-0.080zM38.192 16.976c-0.044 0.045-0.066 0.097-0.066 0.158 0 0.063 0.022 0.117 0.067 0.161s0.098 0.066 0.161 0.066c0.062 0 0.116-0.022 0.16-0.067s0.066-0.099 0.066-0.161c0-0.061-0.022-0.114-0.066-0.158s-0.098-0.068-0.16-0.068c-0.063 0-0.117 0.023-0.162 0.068zM38.546 17.331c-0.053 0.051-0.118 0.077-0.193 0.077-0.078 0-0.143-0.026-0.196-0.079s-0.080-0.117-0.080-0.194c0-0.080 0.029-0.146 0.086-0.199 0.054-0.050 0.117-0.074 0.19-0.074 0.076 0 0.141 0.027 0.194 0.080s0.081 0.118 0.081 0.193c0 0.078-0.027 0.143-0.083 0.196z"></path>
</symbol>
<symbol id="icon-Group-79" viewBox="0 0 41 32">
<path fill="#000" style="fill: var(--color3, #000)" d="M0.114 0.114h40.914v31.771h-40.914v-31.771z"></path>
<path fill="#8491a0" style="fill: var(--color5, #8491a0)" d="M22.458 15.283c0.035 0 0.070-0.002 0.104-0.007l1.328 1.931c-0.124 0.139-0.199 0.322-0.199 0.522 0 0.433 0.351 0.784 0.784 0.784s0.784-0.351 0.784-0.784-0.351-0.784-0.784-0.784c-0.101 0-0.198 0.019-0.287 0.054l-1.275-1.862c0.199-0.142 0.329-0.375 0.329-0.639 0-0.433-0.351-0.784-0.784-0.784s-0.784 0.351-0.784 0.784c0 0.273 0.14 0.514 0.352 0.655l-1.263 1.832c-0.078-0.026-0.161-0.040-0.247-0.040-0.075 0-0.147 0.011-0.216 0.030l-1.256-1.822c0.212-0.14 0.352-0.381 0.352-0.655 0-0.433-0.351-0.784-0.784-0.784s-0.784 0.351-0.784 0.784c0 0.262 0.129 0.494 0.326 0.637l-1.292 1.871c-0.094-0.039-0.196-0.061-0.304-0.061-0.433 0-0.784 0.351-0.784 0.784s0.351 0.784 0.784 0.784c0.433 0 0.784-0.351 0.784-0.784 0-0.189-0.067-0.363-0.178-0.498l1.344-1.956c0.034 0.005 0.069 0.007 0.104 0.007 0.024 0 0.047-0.001 0.070-0.003l1.301 1.876c-0.154 0.143-0.25 0.347-0.25 0.574 0 0.433 0.351 0.784 0.784 0.784s0.784-0.351 0.784-0.784c0-0.215-0.087-0.411-0.228-0.552l1.316-1.897c0.023 0.002 0.046 0.003 0.070 0.003z"></path>
</symbol>
<symbol id="icon-Group-86" viewBox="0 0 128 32">
<path fill="#5b6876" style="fill: var(--color6, #5b6876)" d="M32 16c0 8.837-7.163 16-16 16s-16-7.163-16-16c0-8.837 7.163-16 16-16s16 7.163 16 16z"></path>
<path fill="#5b6876" style="fill: var(--color6, #5b6876)" d="M80 16c0 8.837-7.163 16-16 16s-16-7.163-16-16c0-8.837 7.163-16 16-16s16 7.163 16 16z"></path>
<path fill="#5b6876" style="fill: var(--color6, #5b6876)" d="M128 16c0 8.837-7.163 16-16 16s-16-7.163-16-16c0-8.837 7.163-16 16-16s16 7.163 16 16z"></path>
</symbol>
<symbol id="icon-LinkedIn" viewBox="0 0 32 32">
<path fill="#0077b5" style="fill: var(--color7, #0077b5)" d="M26.2 4h-20.4c-0.96 0-1.8 0.724-1.8 1.688v20.623c0 0.965 0.84 1.688 1.8 1.688h20.4c0.96 0 1.8-0.724 1.8-1.688v-20.623c0-0.844-0.84-1.688-1.8-1.688zM11.080 24.623h-3.6v-11.457h3.6v11.457zM9.28 11.477c-1.2 0-2.040-0.965-2.040-2.050s0.96-2.050 2.040-2.050c1.080 0 2.040 0.965 2.040 2.050 0.12 1.206-0.84 2.050-2.040 2.050zM24.4 24.623h-3.6v-5.548c0-1.327 0-3.015-1.8-3.015s-2.16 1.447-2.16 3.015v5.668h-3.6v-11.457h3.36v1.568c0.48-0.965 1.68-1.809 3.36-1.809 3.6 0 4.32 2.412 4.32 5.427v6.151h0.12z"></path>
</symbol>
<symbol id="icon-Twitter" viewBox="0 0 32 32">
<path fill="#26a7de" style="fill: var(--color8, #26a7de)" d="M29.333 9.163c-0.92 0.394-1.97 0.657-3.153 0.788 1.051-0.657 1.97-1.708 2.365-2.89-1.051 0.657-2.233 1.051-3.415 1.314-0.92-1.051-2.365-1.708-3.941-1.708-3.021 0-5.386 2.365-5.386 5.255 0 0.394 0 0.788 0.131 1.182-4.466-0.263-8.407-2.365-11.166-5.517-0.525 0.788-0.788 1.708-0.788 2.627 0 1.839 0.92 3.415 2.365 4.466-0.92 0-1.708-0.263-2.496-0.657 0 0 0 0 0 0.131 0 2.627 1.839 4.729 4.335 5.255-0.394 0.131-0.92 0.131-1.445 0.131-0.394 0-0.657 0-1.051-0.131 0.657 2.102 2.627 3.678 4.992 3.678-1.839 1.445-4.204 2.233-6.699 2.233-0.394 0-0.92-0-1.314-0.131 2.365 1.576 5.255 2.365 8.276 2.365 9.852 0 15.369-8.144 15.369-15.107 0-0.263 0-0.525 0-0.657 1.445-0.657 2.365-1.576 3.021-2.627z"></path>
</symbol>
<symbol id="icon-Vector-2" viewBox="0 0 32 32">
<path fill="#5221e6" style="fill: var(--color1, #5221e6)" d="M30.222 23.111v7.111h-12.444v-7.111h12.444zM30.222 1.778v14.222h-12.444v-14.222h12.444zM10.667 16h-8.889v14.222h8.889v-14.222zM10.667 1.778v7.111h-8.889v-7.111h8.889zM17.778 0c-0.982 0-1.778 0.796-1.778 1.778v14.222c0 0.982 0.796 1.778 1.778 1.778h12.444c0.982 0 1.778-0.796 1.778-1.778v-14.222c0-0.982-0.796-1.778-1.778-1.778h-12.444zM17.778 21.333c-0.982 0-1.778 0.796-1.778 1.778v7.111c0 0.982 0.796 1.778 1.778 1.778h12.444c0.982 0 1.778-0.796 1.778-1.778v-7.111c0-0.982-0.796-1.778-1.778-1.778h-12.444zM0 16c0-0.982 0.796-1.778 1.778-1.778h8.889c0.982 0 1.778 0.796 1.778 1.778v14.222c0 0.982-0.796 1.778-1.778 1.778h-8.889c-0.982 0-1.778-0.796-1.778-1.778v-14.222zM1.778 0c-0.982 0-1.778 0.796-1.778 1.778v7.111c0 0.982 0.796 1.778 1.778 1.778h8.889c0.982 0 1.778-0.796 1.778-1.778v-7.111c0-0.982-0.796-1.778-1.778-1.778h-8.889z"></path>
</symbol>
<symbol id="icon-Vector" viewBox="0 0 105 32">
<path fill="#fff" style="fill: var(--color9, #fff)" d="M6.48 31.6h-6.48v-31.6h7.24c1.493 0 2.707 0.080 3.64 0.24 0.96 0.133 1.707 0.427 2.24 0.88s0.893 1.107 1.080 1.96c0.213 0.827 0.32 1.947 0.32 3.36v3.28c0 0.827-0.093 1.507-0.28 2.040s-0.427 0.96-0.72 1.28c-0.267 0.32-0.56 0.56-0.88 0.72-0.32 0.133-0.613 0.227-0.88 0.28v0.16c0.4 0.107 0.76 0.267 1.080 0.48 0.347 0.187 0.64 0.48 0.88 0.88s0.427 0.933 0.56 1.6c0.16 0.64 0.24 1.467 0.24 2.48v11.96h-6.52v-14c0-0.347-0.040-0.573-0.12-0.68-0.080-0.133-0.293-0.2-0.64-0.2h-0.76v14.88zM6.48 11.64h0.76c0.347 0 0.56-0.053 0.64-0.16 0.080-0.133 0.12-0.373 0.12-0.72v-4.32c0-0.347-0.040-0.573-0.12-0.68-0.080-0.133-0.293-0.2-0.64-0.2h-0.76v6.080zM29.702 26.92c0 1.12-0.093 2.013-0.28 2.68-0.16 0.667-0.48 1.187-0.96 1.56-0.453 0.347-1.093 0.573-1.92 0.68-0.8 0.107-1.853 0.16-3.16 0.16-1.28 0-2.333-0.053-3.16-0.16s-1.467-0.333-1.92-0.68c-0.453-0.373-0.773-0.893-0.96-1.56-0.16-0.667-0.24-1.56-0.24-2.68v-14.6c0-1.12 0.080-2.013 0.24-2.68 0.187-0.667 0.507-1.173 0.96-1.52 0.453-0.373 1.093-0.613 1.92-0.72s1.88-0.16 3.16-0.16c1.307 0 2.36 0.053 3.16 0.16 0.827 0.107 1.467 0.347 1.92 0.72 0.48 0.347 0.8 0.853 0.96 1.52 0.187 0.667 0.28 1.56 0.28 2.68v14.6zM22.662 25.8c0 0.347 0.040 0.587 0.12 0.72 0.080 0.107 0.28 0.16 0.6 0.16 0.347 0 0.56-0.053 0.64-0.16 0.080-0.133 0.12-0.373 0.12-0.72v-12.36c0-0.347-0.040-0.573-0.12-0.68-0.080-0.133-0.293-0.2-0.64-0.2-0.32 0-0.52 0.067-0.6 0.2-0.080 0.107-0.12 0.333-0.12 0.68v12.36zM38.298 0v8.72c0.347-0.48 0.773-0.813 1.28-1 0.533-0.187 1.187-0.28 1.96-0.28s1.4 0.093 1.88 0.28c0.48 0.16 0.84 0.427 1.080 0.8 0.267 0.373 0.44 0.88 0.52 1.52 0.107 0.613 0.16 1.373 0.16 2.28v14.6c0 0.933-0.053 1.72-0.16 2.36-0.080 0.613-0.253 1.107-0.52 1.48s-0.653 0.64-1.16 0.8c-0.507 0.16-1.16 0.24-1.96 0.24-0.907 0-1.64-0.093-2.2-0.28-0.56-0.213-0.987-0.547-1.28-1v1.080h-5.32v-31.6h5.72zM39.618 13.44c0-0.32-0.040-0.547-0.12-0.68-0.053-0.133-0.227-0.2-0.52-0.2-0.267 0-0.467 0.053-0.6 0.16-0.107 0.080-0.187 0.213-0.24 0.4v13c0.053 0.187 0.133 0.333 0.24 0.44 0.133 0.080 0.333 0.12 0.6 0.12 0.293 0 0.467-0.067 0.52-0.2 0.080-0.133 0.12-0.36 0.12-0.68v-12.36zM53.807 4.16h-5.68v-4.16h5.68v4.16zM53.807 31.6h-5.68v-23.96h5.68v23.96zM70.071 31.6h-5.76v-18.16c0-0.32-0.040-0.547-0.12-0.68-0.054-0.133-0.227-0.2-0.52-0.2-0.267 0-0.467 0.053-0.6 0.16-0.107 0.080-0.2 0.213-0.28 0.4v18.48h-5.72v-23.96h5.32v1.080c0.293-0.453 0.72-0.773 1.28-0.96 0.56-0.213 1.293-0.32 2.2-0.32 0.8 0 1.466 0.080 2 0.24 0.56 0.16 1 0.427 1.32 0.8s0.546 0.88 0.68 1.52c0.133 0.613 0.2 1.387 0.2 2.32v19.28zM78.925 31.6h-5.8v-5.64h5.8v5.64zM104.573 0l-3.28 31.6h-8.16l-1.080-22.92h-0.16l-1.32 22.92h-8.28l-2.44-31.6h6.52l0.68 22.16h0.16l0.96-22.16h8l0.68 22.16h0.16l1-22.16h6.56z"></path>
</symbol>
<symbol id="icon-youtube" viewBox="0 0 32 32">
<path d="M18.226 15.768l-3.119-1.455c-0.272-0.126-0.496 0.015-0.496 0.317v2.742c0 0.301 0.224 0.443 0.496 0.317l3.118-1.455c0.274-0.128 0.274-0.336 0.001-0.464zM16 2.667c-7.364 0-13.333 5.969-13.333 13.333s5.969 13.333 13.333 13.333c7.364 0 13.333-5.969 13.333-13.333s-5.969-13.333-13.333-13.333zM16 21.417c-6.825 0-6.944-0.615-6.944-5.417s0.119-5.417 6.944-5.417c6.825 0 6.944 0.615 6.944 5.417s-0.119 5.417-6.944 5.417z"></path>
</symbol>
<symbol id="icon-facebook" viewBox="0 0 32 32">
<path d="M29.333 16.033c0-7.378-5.973-13.367-13.333-13.367s-13.333 5.988-13.333 13.367c0 6.469 4.587 11.856 10.667 13.099v-9.089h-2.667v-4.010h2.667v-3.342c0-2.58 2.093-4.678 4.667-4.678h3.333v4.010h-2.667c-0.733 0-1.333 0.601-1.333 1.337v2.673h4v4.010h-4v9.29c6.733-0.668 12-6.363 12-13.3z"></path>
</symbol>
<symbol id="icon-instagram" viewBox="0 0 32 32">
<path d="M21.179 4h-11.692c-1.808 0.002-3.542 0.721-4.821 2s-1.998 3.012-2 4.821v11.692c0.002 1.808 0.721 3.542 2 4.821s3.012 1.998 4.821 2h11.692c1.808-0.002 3.542-0.721 4.821-2s1.998-3.012 2-4.821v-11.692c-0.002-1.808-0.721-3.542-2-4.821s-3.012-1.998-4.821-2zM15.333 22.513c-1.156 0-2.287-0.343-3.248-0.985s-1.711-1.555-2.153-2.624c-0.442-1.068-0.558-2.244-0.333-3.378s0.782-2.176 1.6-2.993c0.818-0.818 1.859-1.374 2.993-1.6s2.309-0.11 3.378 0.333 1.981 1.192 2.624 2.153c0.642 0.961 0.985 2.092 0.985 3.248-0.002 1.55-0.618 3.036-1.714 4.132s-2.582 1.712-4.132 1.714zM22.641 10.82c-0.289 0-0.572-0.086-0.812-0.246s-0.428-0.389-0.538-0.656c-0.111-0.267-0.14-0.561-0.083-0.844s0.196-0.544 0.4-0.748c0.204-0.204 0.465-0.344 0.748-0.4s0.577-0.027 0.844 0.083c0.267 0.111 0.495 0.298 0.656 0.538s0.246 0.523 0.246 0.812c0 0.388-0.154 0.759-0.428 1.033s-0.646 0.428-1.033 0.428zM19.231 16.667c0 0.771-0.229 1.524-0.657 2.165s-1.037 1.14-1.749 1.435c-0.712 0.295-1.496 0.372-2.252 0.222s-1.45-0.522-1.995-1.067-0.916-1.239-1.067-1.995c-0.15-0.756-0.073-1.54 0.222-2.252s0.795-1.321 1.435-1.749c0.641-0.428 1.395-0.657 2.165-0.657 1.034 0 2.025 0.411 2.756 1.142s1.142 1.722 1.142 2.756z"></path>
</symbol>
<symbol id="icon-burger" viewBox="0 0 32 32">
<path d="M4.799 8.001c0-0.424 0.169-0.831 0.469-1.131s0.707-0.469 1.131-0.469h19.2c0.424 0 0.831 0.169 1.131 0.469s0.469 0.707 0.469 1.131-0.169 0.831-0.469 1.131c-0.3 0.3-0.707 0.469-1.131 0.469h-19.2c-0.424 0-0.831-0.169-1.131-0.469s-0.469-0.707-0.469-1.131z"></path>
<path d="M4.799 16.001c0-0.424 0.169-0.831 0.469-1.131s0.707-0.469 1.131-0.469h19.2c0.424 0 0.831 0.169 1.131 0.469s0.469 0.707 0.469 1.131c0 0.424-0.169 0.831-0.469 1.131s-0.707 0.469-1.131 0.469h-19.2c-0.424 0-0.831-0.169-1.131-0.469s-0.469-0.707-0.469-1.131z"></path>
<path d="M4.799 24.001c0-0.424 0.169-0.831 0.469-1.131s0.707-0.469 1.131-0.469h19.2c0.424 0 0.831 0.169 1.131 0.469s0.469 0.707 0.469 1.131c0 0.424-0.169 0.831-0.469 1.131s-0.707 0.469-1.131 0.469h-19.2c-0.424 0-0.831-0.169-1.131-0.469s-0.469-0.707-0.469-1.131z"></path>
</symbol>
<symbol id="icon-Group-60" viewBox="0 0 130 32">
<path fill="#8491a0" style="fill: var(--color1, #8491a0)" d="M58.884 15.478c4.094-1.351 4.836-4.767 4.827-7.55-0.008-4.249-3.026-7.925-11.959-7.925l-16.674-0.003v31.934h16.631c8.987 0 12.293-4.586 12.293-9.18 0-5.563-5.118-7.276-5.118-7.276zM42.99 6.947l11.267 0.008c1.267 0.223 2.19 1.294 2.19 2.551 0 1.286-0.989 2.496-2.295 2.673l-11.154 0.017-0.008-5.249zM53.676 24.492h-10.686v-5.347l10.973 0.003c1.362 0.156 2.394 1.282 2.394 2.619 0 1.457-1.221 2.702-2.681 2.725z"></path>
<path fill="#8491a0" style="fill: var(--color1, #8491a0)" d="M101.339 0.004h28.177l-0.016 6.97h-20.332l0.019 5.147h18.33v7.006h-18.33v5.57h20.335l-0.004 7.303h-28.18v-31.996z"></path>
<path fill="#8491a0" style="fill: var(--color1, #8491a0)" d="M84.95 0.046h-17.039v31.944h7.825v-12.924c0 0 8.616-0.010 8.617-0.010 2.468 0.038 4.387 2.047 4.387 4.525v8.381l7.659-0.003-0.015-10.31c0-4.776-4.641-6.187-4.641-6.187s4.745-1.412 4.745-7.058c0-6.908-5.973-8.359-11.537-8.359zM89.221 9.957c-0.141 1.050-1.197 2.189-2.516 2.189l-10.997 0.004v-5.115h11.002c1.313 0 2.343 0.962 2.51 2.225v0.697z"></path>
<path fill="#8491a0" style="fill: var(--color1, #8491a0)" d="M30.003 24.271c-0.113 0.003-10.696 0.206-14.349-0.148-5.885-0.573-7.969-4.906-7.969-8.442 0-4.409 3.024-7.654 7.709-8.264 2.229-0.29 14.416-0.153 14.545-0.152l0.256 0.003 0.026-7.264-0.259 0.001-13.794 0.025c-1.536 0.093-4.082 0.247-6.689 1.307-2.504 1.141-4.684 2.892-6.312 5.072-2.071 2.775-3.168 6.067-3.168 9.521 0 1.086 0.086 2.165 0.263 3.199 0.993 4.843 4.187 8.851 8.767 11.007 1.547 0.676 3.932 1.488 8.742 1.756 0.010 0 2.591 0.054 2.591 0.054l9.87 0.010 0.027-7.688-0.257 0.003z"></path>
</symbol>
<symbol id="icon-Group-67" viewBox="0 0 78 32">
<path fill="#8491a0" style="fill: var(--color1, #8491a0)" d="M21.531 15.557c-1.528 4.65-5.266 7.27-10.319 7.27-6.285 0-11.212-4.987-11.212-11.371 0-6.298 4.926-11.456 10.999-11.456 5.648 0 11.084 4.65 11.042 12.385h-18.389c0.467 4.524 3.949 7.187 7.559 7.187 3.1 0 5.308-1.48 6.498-4.016h3.822zM18.049 9.173c-0.892-3.551-3.865-5.918-7.050-5.918-3.015 0-6.2 2.199-7.134 5.918h14.184zM34.739 22.827c-3.143 0-5.861-1.691-7.432-3.804v12.977h-3.61v-31.45h3.482v3.466c1.529-2.197 4.331-4.016 7.559-4.016 6.285 0 10.914 5.115 10.914 11.372 0 6.341-4.629 11.455-10.914 11.455zM34.739 3.298c-4.035 0-7.432 3.636-7.432 8.074 0 4.48 3.397 8.158 7.432 8.158 4.077 0 7.304-3.678 7.304-8.158 0-4.438-3.228-8.074-7.304-8.074zM47.224 0.55h3.61v21.77h-3.61v-21.77zM52.446 11.469c0-6.353 5.18-11.462 11.739-11.462s11.74 5.11 11.74 11.462c0 6.353-5.229 11.369-11.74 11.369s-11.739-5.017-11.739-11.37zM65.176 3.475c-5.976-0.52-9.299 4.008-9.299 9.284 0 5.275 4.368 9.552 9.754 9.552 2.016 0.004 3.985-0.61 5.639-1.758l-1.352-3.427c1.397-1.449 2.204-3.451 2.204-5.663 0-4.372-3.067-7.627-6.946-7.99z"></path>
<path fill="#8491a0" style="fill: var(--color1, #8491a0)" d="M62.029 13.657l10.65 8.625h5.666l-10.375-8.625z"></path>
</symbol>
<symbol id="icon-Group-68" viewBox="0 0 32 32">
<path fill="#8491a0" style="fill: var(--color1, #8491a0)" d="M30.601 0h-30.219c-0.090 0-0.176 0.032-0.245 0.089s-0.115 0.137-0.131 0.225c-0.016 0.088 0 0.179 0.045 0.257s0.115 0.137 0.199 0.168l27.333 8.949c0.031 0.010 0.065 0.009 0.096-0.003s0.056-0.035 0.071-0.064l4.079-7.566c0.114-0.212 0.172-0.451 0.167-0.692s-0.073-0.477-0.197-0.684c-0.124-0.207-0.299-0.379-0.509-0.498s-0.447-0.182-0.688-0.182z"></path>
<path fill="#8491a0" style="fill: var(--color1, #8491a0)" d="M0.007 31.633c0 0.082 0.027 0.162 0.078 0.227s0.121 0.111 0.201 0.131 0.164 0.013 0.239-0.020c0.075-0.033 0.137-0.090 0.176-0.163l5.258-9.74c0.119-0.221 0.297-0.406 0.513-0.535s0.463-0.197 0.714-0.197h13.414c0.252 0 0.498-0.068 0.715-0.197s0.393-0.314 0.513-0.535l4.008-7.432c0.009-0.017 0.014-0.036 0.013-0.055s-0.006-0.038-0.016-0.055c-0.010-0.016-0.024-0.030-0.040-0.040s-0.036-0.014-0.055-0.014h-24.335c-0.37 0-0.724 0.147-0.986 0.408s-0.408 0.616-0.408 0.986v17.23z"></path>
</symbol>
<symbol id="icon-Fresh" viewBox="0 0 32 32">
<path fill="#8491a0" style="fill: var(--color1, #8491a0)" d="M29.696 0h-14.231c-8.541 0-15.465 5.947-15.465 14.488v10.040c6.234-12.744 21.387-21.699 29.696-24.528z"></path>
<path fill="#8491a0" style="fill: var(--color1, #8491a0)" d="M1.525 32h12.612c8.541 0 15.465-6.924 15.465-15.465v-15.796c-13.167 7.311-22.177 18.691-28.077 31.261z"></path>
</symbol>
</defs>
</svg>
